HIERARCHY
ROOT Hips
{
	OFFSET 0.00000 0.00000 0.00000
	CHANNELS 6 Xposition Yposition Zposition Zrotation Yrotation Xrotation 
	JOINT LHipJoint
	{
		OFFSET 0 0 0
		CHANNELS 3 Zrotation Yrotation Xrotation
		JOINT LeftHip
		{
			OFFSET 1.65674 -1.80282 0.62477
			CHANNELS 3 Zrotation Yrotation Xrotation
			JOINT LeftKnee
			{
				OFFSET 2.59720 -7.13576 0.00000
				CHANNELS 3 Zrotation Yrotation Xrotation
				JOINT LeftAnkle
				{
					OFFSET 2.49236 -6.84770 0.00000
					CHANNELS 3 Zrotation Yrotation Xrotation
					JOINT LeftToe
					{
						OFFSET 0.19704 -0.54136 2.14581
						CHANNELS 3 Zrotation Yrotation Xrotation
						End Site
						{
							OFFSET 0.00000 -0.00000 1.11249
						}
					}
				}
			}
		}
	}
	JOINT RHipJoint
	{
		OFFSET 0 0 0
		CHANNELS 3 Zrotation Yrotation Xrotation
		JOINT RightHip
		{
			OFFSET -1.61070 -1.80282 0.62476
			CHANNELS 3 Zrotation Yrotation Xrotation
			JOINT RightKnee
			{
				OFFSET -2.59502 -7.12977 0.00000
				CHANNELS 3 Zrotation Yrotation Xrotation
				JOINT RightAnkle
				{
					OFFSET -2.46780 -6.78024 0.00000
					CHANNELS 3 Zrotation Yrotation Xrotation
					JOINT RightToe
					{
						OFFSET -0.23024 -0.63258 2.13368
						CHANNELS 3 Zrotation Yrotation Xrotation
						End Site
						{
							OFFSET -0.00000 -0.00000 1.11569
						}
					}
				}
			}
		}
	}
	JOINT lowerback
	{
		OFFSET 0 0 0
		CHANNELS 3 Zrotation Yrotation Xrotation
		JOINT Chest
		{
			OFFSET 0.01961 2.05450 -0.14112
			CHANNELS 3 Zrotation Yrotation Xrotation
			JOINT Chest2
			{
				OFFSET 0.01021 2.06436 -0.05921
				CHANNELS 3 Zrotation Yrotation Xrotation
				JOINT lowerneck
				{
					OFFSET 0 0 0
					CHANNELS 3 Zrotation Yrotation Xrotation
					JOINT Neck
					{
						OFFSET 0.00713 1.56711 0.14968
						CHANNELS 3 Zrotation Yrotation Xrotation
						JOINT Head
						{
							OFFSET 0.03429 1.56041 -0.10006
							CHANNELS 3 Zrotation Yrotation Xrotation
							End Site
							{
								OFFSET 0.01305 1.62560 -0.05265
							}
						}
					}
				}
				JOINT LeftCollar
				{
					OFFSET 0 0 0
					CHANNELS 3 Zrotation Yrotation Xrotation
					JOINT LeftShoulder
					{
						OFFSET 3.54205 0.90436 -0.17364
CHANNELS 3 Zrotation Xrotation Yrotation
						JOINT LeftElbow
						{
OFFSET 0 -4.865130 -0.000000
CHANNELS 3 Zrotation Xrotation Yrotation
							JOINT LeftWrist
							{
OFFSET 0 -3.355540 0.000000
CHANNELS 3 Zrotation Xrotation Yrotation
								JOINT lhand
								{
									OFFSET 0 0 0
CHANNELS 3 Zrotation Xrotation Yrotation
									JOINT LFingers
									{
OFFSET 0 -0.661170 0.000000
CHANNELS 3 Zrotation Xrotation Yrotation
										End Site
										{
OFFSET 0 -0.533060 0.000000
										}
									}
								}
								JOINT LThumb
								{
OFFSET 0 0.000000 0.000000
CHANNELS 3 Zrotation Xrotation Yrotation
									End Site
									{
OFFSET 0 -0.541200 0.541200
									}
								}
							}
						}
					}
				}
				JOINT RightCollar
				{
					OFFSET 0 0 0
					CHANNELS 3 Zrotation Yrotation Xrotation
					JOINT RightShoulder
					{
						OFFSET -3.49802 0.75994 -0.32616
CHANNELS 3 Zrotation Xrotation Yrotation
						JOINT RightElbow
						{
OFFSET 0 -5.026490 0.000000
CHANNELS 3 Zrotation Xrotation Yrotation
							JOINT RightWrist
							{
OFFSET 0 -3.364310 0.000000
CHANNELS 3 Zrotation Xrotation Yrotation
								JOINT rhand
								{
									OFFSET 0 0 0
CHANNELS 3 Zrotation Xrotation Yrotation
									JOINT RFingers
									{
OFFSET 0 -0.730410 0.000000
CHANNELS 3 Zrotation Xrotation Yrotation
										End Site
										{
OFFSET 0 -0.588870 0.000000
										}
									}
								}
								JOINT RThumb
								{
OFFSET 0 0.000000 0.000000
CHANNELS 3 Zrotation Xrotation Yrotation
									End Site
									{
OFFSET 0 -0.597860 0.597860
									}
								}
							}
						}
					}
				}
			}
		}
	}
}
MOTION
Frames: 9
Frame Time: 0.008333333333333333
10.046671 17.491112 -0.674893 2.197257 -3.181154 -5.443490 0.000000 0.000000 0.000000 -28.596099 -3.631707 -5.869527 2.367027 9.591954 27.665219 0.633010 5.477383 -18.014992 0.032328 -1.072394 -2.949011 0.000000 0.000000 0.000000 18.416825 7.745048 -11.999559 -13.191354 -18.850052 69.718750 0.766948 -15.562949 -8.896526 -0.771179 5.607264 -15.648951 -1.406608 -0.050633 5.929478 0.140396 -0.149034 1.650214 0.944474 -0.072410 -1.621193 3.701232 7.938087 -8.229473 -3.859453 10.510120 5.717796 -1.281140 5.130561 3.780996 0.000000 0.000000 0.000000 -1.116489 3.834639 -22.919690 21.844457 -32.796425 6.503317 23.520229 -15.637237 -22.125044 0.000000 0.000000 0.000000 -7.125000 0.000000 0.000000 -5.633647 53.804981 1.222889 0.000000 0.000000 0.000000 -4.395431 -1.525555 32.197549 -16.631781 -26.368162 -3.923239 -22.521632 -17.082456 -14.897523 0.000000 0.000000 0.000000 7.125000 0.000000 0.000000 3.403490 13.933936 2.488272
10.048612 17.495737 -0.588280 1.991772 -2.950261 -5.467869 0.000000 0.000000 0.000000 -28.426698 -3.649121 -5.531581 2.370681 9.598863 27.687258 0.642831 5.450148 -18.102975 0.066985 -1.633982 -4.495833 0.000000 0.000000 0.000000 18.629676 8.005345 -12.610877 -13.130662 -18.828755 69.530850 0.755643 -15.583046 -9.585779 -0.786138 5.660191 -15.801452 -1.249825 -0.074099 6.083635 0.251389 -0.170901 1.651641 0.972622 -0.083030 -1.705180 3.623697 7.866661 -8.226218 -3.902960 10.428759 5.762387 -1.287421 5.086484 3.790588 0.000000 0.000000 0.000000 -0.972666 3.569318 -23.696869 22.459372 -33.489674 6.838751 23.518288 -15.821312 -22.396531 0.000000 0.000000 0.000000 -7.125000 0.000000 0.000000 -5.725742 54.089943 1.282668 0.000000 0.000000 0.000000 -4.355293 -1.087064 31.634648 -16.265744 -25.878685 -3.761717 -22.582495 -16.948168 -14.843168 0.000000 0.000000 0.000000 7.125000 0.000000 0.000000 3.359070 13.984808 2.452017
10.050767 17.494763 -0.501880 1.851419 -2.695691 -5.402158 0.000000 0.000000 0.000000 -28.328669 -3.680596 -5.281632 2.374934 9.606840 27.712716 0.663763 5.329318 -18.243612 0.092752 -1.953161 -5.376585 0.000000 0.000000 0.000000 18.726066 8.258676 -13.340750 -13.054584 -18.801604 69.294827 0.721131 -15.465656 -10.386407 -0.758915 5.561954 -15.518967 -1.137489 -0.124063 6.152787 0.322123 -0.230036 1.601398 0.987136 -0.111941 -1.794082 3.565864 7.780661 -8.073851 -3.929756 10.323593 5.674918 -1.301309 5.034970 3.723807 0.000000 0.000000 0.000000 -0.761488 3.388233 -24.478920 23.116726 -34.210105 7.206452 23.622935 -16.096761 -22.536172 0.000000 0.000000 0.000000 -7.125000 0.000000 0.000000 -5.663723 54.257290 1.291375 0.000000 0.000000 0.000000 -4.305368 -0.580449 31.246374 -15.922145 -25.413398 -3.613401 -22.599168 -17.212112 -15.067465 0.000000 0.000000 0.000000 7.125000 0.000000 0.000000 3.361362 13.743352 2.470936
10.052993 17.491908 -0.415552 1.732946 -2.433168 -5.306181 0.000000 0.000000 0.000000 -28.254617 -3.716794 -5.061244 2.379387 9.615176 27.739322 0.688428 5.177045 -18.401937 0.115533 -2.190905 -6.033579 0.000000 0.000000 0.000000 18.783333 8.509666 -14.110449 -12.973338 -18.772485 69.042637 0.678824 -15.302078 -11.224450 -0.717521 5.412936 -15.090353 -1.040085 -0.182928 6.193381 0.379333 -0.301690 1.533798 0.997071 -0.146997 -1.884635 3.514650 7.689766 -7.871392 -3.950938 10.210431 5.543085 -1.317752 4.980958 3.631370 0.000000 0.000000 0.000000 -0.527684 3.235447 -25.262609 23.788336 -34.939667 7.584993 23.763389 -16.402905 -22.631521 0.000000 0.000000 0.000000 -7.125000 0.000000 0.000000 -5.549933 54.385126 1.282925 0.000000 0.000000 0.000000 -4.252156 -0.050948 30.916764 -15.586083 -24.956237 -3.469521 -22.600995 -17.609837 -15.385370 0.000000 0.000000 0.000000 7.125000 0.000000 0.000000 3.379347 13.403693 2.508390
10.056416 17.485809 -0.324556 1.874294 -2.154932 -5.219255 0.000000 0.000000 0.000000 -28.483422 -3.750658 -4.768900 2.375358 9.607629 27.715319 0.740589 4.871123 -18.741578 0.082183 -1.820428 -5.010508 0.000000 0.000000 0.000000 18.495045 8.695531 -14.867170 -12.866473 -18.733176 68.710065 0.648756 -15.149659 -11.582018 -0.750418 5.531992 -15.432719 -1.254761 -0.264166 6.151088 0.386274 -0.422702 1.502688 1.133842 -0.206362 -1.888031 3.577576 7.655400 -7.724665 -4.049884 10.167973 5.486398 -1.370345 4.959964 3.592503 0.000000 0.000000 0.000000 -0.380979 3.082831 -25.810272 24.537995 -35.720578 8.021658 23.916311 -16.611360 -22.688671 0.000000 0.000000 0.000000 -7.125000 0.000000 0.000000 -5.409614 54.475560 1.262007 0.000000 0.000000 0.000000 -4.235719 0.449348 30.706987 -15.295620 -24.555207 -3.348583 -22.674551 -18.244725 -15.892107 0.000000 0.000000 0.000000 7.125000 0.000000 0.000000 3.362834 12.853798 2.534687
10.059407 17.478115 -0.233266 2.023486 -1.882302 -5.162493 0.000000 0.000000 0.000000 -28.721754 -3.756988 -4.433545 2.367027 9.591957 27.665365 0.789031 4.592517 -19.059188 0.056802 -1.538128 -4.230947 0.000000 0.000000 0.000000 18.208492 8.889674 -15.580491 -12.754163 -18.691440 68.360093 0.619733 -14.988156 -11.878130 -0.784445 5.653728 -15.783165 -1.468109 -0.336859 6.113895 0.385230 -0.532274 1.500630 1.260621 -0.260497 -1.864499 3.604700 7.623458 -7.613455 -4.107297 10.127840 5.422933 -1.401812 4.940540 3.552951 0.000000 0.000000 0.000000 -0.237054 2.880587 -26.338312 25.281432 -36.486915 8.458030 24.044293 -16.829149 -22.639552 0.000000 0.000000 0.000000 -7.125000 0.000000 0.000000 -5.260368 54.449014 1.224450 0.000000 0.000000 0.000000 -4.187879 0.885710 30.373750 -14.981564 -24.119494 -3.219074 -22.702770 -18.625139 -16.221385 0.000000 0.000000 0.000000 7.125000 0.000000 0.000000 3.365123 12.498941 2.561470
10.061062 17.465554 -0.141115 2.194429 -1.627029 -5.198291 0.000000 0.000000 0.000000 -28.986619 -3.678768 -3.966735 2.345559 9.551477 27.536159 0.825800 4.399193 -19.307494 0.056402 -1.532133 -4.214447 0.000000 0.000000 0.000000 17.930382 9.109833 -16.160635 -12.625357 -18.642338 67.957401 0.593812 -14.798658 -11.989808 -0.821271 5.781279 -16.151486 -1.674565 -0.383106 6.093113 0.360108 -0.606270 1.587471 1.355570 -0.298352 -1.759044 3.520827 7.598450 -7.610829 -4.036442 10.094211 5.337976 -1.368069 4.925638 3.510815 0.000000 0.000000 0.000000 -0.100882 2.525912 -26.808206 26.005056 -37.208027 8.892981 24.095564 -17.076485 -22.264380 0.000000 0.000000 0.000000 -7.125000 0.000000 0.000000 -5.083944 54.063508 1.135895 0.000000 0.000000 0.000000 -4.043257 1.125967 29.660232 -14.594630 -23.576747 -3.063033 -22.591092 -18.221819 -16.003910 0.000000 0.000000 0.000000 7.125000 0.000000 0.000000 3.425472 12.745021 2.589846
10.063649 17.452485 -0.044195 2.394799 -1.362897 -5.310521 0.000000 0.000000 0.000000 -29.300265 -3.552979 -3.384531 2.322737 9.508175 27.398263 0.858168 4.256286 -19.540481 0.067175 -1.658911 -4.564329 0.000000 0.000000 0.000000 17.620954 9.284794 -16.597228 -12.474487 -18.583474 67.484372 0.549242 -14.491959 -12.235529 -0.836571 5.834515 -16.305129 -1.878058 -0.435532 6.093265 0.312189 -0.688701 1.696094 1.425917 -0.341002 -1.642473 3.412719 7.585518 -7.576321 -3.927019 10.077115 5.247855 -1.317990 4.920357 3.457308 0.000000 0.000000 0.000000 0.047958 2.174002 -27.243988 26.700636 -37.887580 9.316505 24.107421 -17.460376 -21.615225 0.000000 0.000000 0.000000 -7.125000 0.000000 0.000000 -4.871632 53.379416 1.009562 0.000000 0.000000 0.000000 -3.896434 1.381318 28.947532 -14.211618 -23.034875 -2.911422 -22.452019 -17.547224 -15.469143 0.000000 0.000000 0.000000 7.125000 0.000000 0.000000 3.486640 13.332205 2.592548
10.067189 17.438896 0.057606 2.625292 -1.089697 -5.500990 0.000000 0.000000 0.000000 -29.663847 -3.378496 -2.684202 2.298529 9.461985 27.251471 0.886031 4.164991 -19.757785 0.089385 -1.921606 -5.289266 0.000000 0.000000 0.000000 17.279468 9.413486 -16.886872 -12.301032 -18.514618 66.939342 0.485581 -14.065287 -12.618466 -0.829834 5.811676 -16.239012 -2.078519 -0.494283 6.114847 0.240935 -0.779768 1.827013 1.471079 -0.388562 -1.514523 3.279801 7.584947 -7.509177 -3.778115 10.076944 5.152449 -1.251189 4.924925 3.392163 0.000000 0.000000 0.000000 0.209765 1.824922 -27.644853 27.367507 -38.524591 9.728333 24.078931 -17.984053 -20.685601 0.000000 0.000000 0.000000 -7.125000 0.000000 0.000000 -4.622583 52.389671 0.844557 0.000000 0.000000 0.000000 -3.747359 1.652120 28.235669 -13.832620 -22.493899 -2.764344 -22.284901 -16.594934 -14.609575 0.000000 0.000000 0.000000 7.125000 0.000000 0.000000 3.548645 14.268565 2.568967
